<svg class="svg-icon-secondary icon-inline icon-1x pr-1" viewBox="0 0 28 28" xmlns="http://www.w3.org/2000/svg"><path d="M14 2.4574C7.6252 2.4574 2.4574 7.6252 2.4574 14C2.4574 20.3748 7.6252 25.5426 14 25.5426C20.3748 25.5426 25.5426 20.3748 25.5426 14C25.5426 7.6252 20.3748 2.4574 14 2.4574ZM0 14C0 6.26801 6.26801 0 14 0C21.732 0 28 6.26801 28 14C28 21.732 21.732 28 14 28C6.26801 28 0 21.732 0 14Z"></path><path d="M14.0001 7.56592C11.8573 7.56592 10.1202 9.30298 10.1202 11.4457C10.1202 13.5885 11.8573 15.3256 14.0001 15.3256C16.1428 15.3256 17.8799 13.5885 17.8799 11.4457C17.8799 9.30298 16.1428 7.56592 14.0001 7.56592ZM7.66284 11.4457C7.66284 7.94579 10.5001 5.10852 14.0001 5.10852C17.5 5.10852 20.3373 7.94579 20.3373 11.4457C20.3373 14.9457 17.5 17.783 14.0001 17.783C10.5001 17.783 7.66284 14.9457 7.66284 11.4457Z"></path><path d="M5.1084 24.217C5.1084 21.4224 7.37388 19.1569 10.1685 19.1569H17.8313C20.6259 19.1569 22.8914 21.4224 22.8914 24.217H20.434C20.434 22.7796 19.2687 21.6143 17.8313 21.6143H10.1685C8.73106 21.6143 7.5658 22.7796 7.5658 24.217H5.1084Z"></path></svg>