<svg width="24" height="24" viewBox="0 0 24 24" fill="none" xmlns="http://www.w3.org/2000/svg">
<path fill-rule="evenodd" clip-rule="evenodd" d="M2.76929 6.4616C2.76929 5.48233 3.1583 4.54318 3.85074 3.85074C4.54318 3.1583 5.48233 2.76929 6.4616 2.76929H17.5385C18.5178 2.76929 19.4569 3.1583 20.1494 3.85074C20.8418 4.54318 21.2308 5.48233 21.2308 6.4616V17.5385C21.2308 18.5178 20.8418 19.4569 20.1494 20.1494C19.4569 20.8418 18.5178 21.2308 17.5385 21.2308H6.4616C5.48233 21.2308 4.54318 20.8418 3.85074 20.1494C3.1583 19.4569 2.76929 18.5178 2.76929 17.5385V6.4616ZM6.4616 4.61544C5.97196 4.61544 5.50239 4.80995 5.15617 5.15617C4.80995 5.50239 4.61544 5.97196 4.61544 6.4616V17.5385C4.61544 18.0281 4.80995 18.4977 5.15617 18.8439C5.50239 19.1902 5.97196 19.3847 6.4616 19.3847H12.0001V12.9231H11.077C10.8322 12.9231 10.5974 12.8259 10.4243 12.6528C10.2512 12.4797 10.1539 12.2449 10.1539 12.0001C10.1539 11.7552 10.2512 11.5205 10.4243 11.3473C10.5974 11.1742 10.8322 11.077 11.077 11.077H12.0001V9.69236C12.0001 8.83551 12.3404 8.01375 12.9463 7.40787C13.5522 6.80198 14.374 6.4616 15.2308 6.4616H15.7847C16.0295 6.4616 16.2643 6.55885 16.4374 6.73196C16.6105 6.90507 16.7078 7.13986 16.7078 7.38467C16.7078 7.62949 16.6105 7.86428 16.4374 8.03739C16.2643 8.2105 16.0295 8.30775 15.7847 8.30775H15.2308C15.049 8.30775 14.8689 8.34356 14.701 8.41315C14.533 8.48273 14.3803 8.58472 14.2518 8.71329C14.1232 8.84187 14.0212 8.99451 13.9516 9.1625C13.882 9.33048 13.8462 9.51053 13.8462 9.69236V11.077H15.7847C16.0295 11.077 16.2643 11.1742 16.4374 11.3473C16.6105 11.5205 16.7078 11.7552 16.7078 12.0001C16.7078 12.2449 16.6105 12.4797 16.4374 12.6528C16.2643 12.8259 16.0295 12.9231 15.7847 12.9231H13.8462V19.3847H17.5385C18.0281 19.3847 18.4977 19.1902 18.8439 18.8439C19.1902 18.4977 19.3847 18.0281 19.3847 17.5385V6.4616C19.3847 5.97196 19.1902 5.50239 18.8439 5.15617C18.4977 4.80995 18.0281 4.61544 17.5385 4.61544H6.4616Z" fill="#293d51"/>
</svg>
