<svg width="20" height="21" viewBox="0 0 20 21" fill="none" xmlns="http://www.w3.org/2000/svg">
<path fill-rule="evenodd" clip-rule="evenodd" d="M16.2004 4.29301C15.3914 3.48366 14.4304 2.84231 13.3726 2.40588C12.3147 1.96945 11.181 1.74656 10.0367 1.75004C5.23438 1.75004 1.325 5.63988 1.32305 10.4219C1.32092 11.9446 1.7223 13.4407 2.48633 14.7579L1.25 19.25L5.86914 18.0442C7.14774 18.7369 8.57903 19.0994 10.0332 19.0989H10.0367C14.8387 19.0989 18.7477 15.2086 18.75 10.427C18.7529 9.28659 18.529 8.15699 18.0913 7.10392C17.6536 6.05086 17.0108 5.09535 16.2004 4.29301ZM10.0367 17.6352H10.0336C8.73726 17.6356 7.46449 17.2887 6.34766 16.6305L6.0832 16.4743L3.34219 17.1899L4.07383 14.5301L3.90156 14.2567C3.17671 13.1091 2.79267 11.7793 2.79414 10.4219C2.79414 6.44809 6.04453 3.21488 10.0395 3.21488C11.9559 3.21146 13.7951 3.96939 15.1528 5.32196C16.5104 6.67454 17.2752 8.51098 17.2789 10.4274C17.2773 14.4016 14.0285 17.6352 10.0367 17.6352ZM14.009 12.2372C13.7914 12.1286 12.7199 11.6043 12.5215 11.5321C12.323 11.4598 12.1766 11.4235 12.0316 11.6407C11.8867 11.8579 11.4691 12.3438 11.3422 12.4903C11.2152 12.6368 11.0883 12.6528 10.8707 12.5442C10.6531 12.4356 9.95117 12.2071 9.11953 11.4688C8.47227 10.8942 8.03555 10.1848 7.90859 9.96801C7.78164 9.75121 7.89492 9.63363 8.00391 9.52582C8.10195 9.42856 8.22148 9.2727 8.33047 9.14613C8.43945 9.01957 8.47578 8.92895 8.54805 8.78442C8.62031 8.63988 8.58437 8.51332 8.53008 8.40512C8.47578 8.29691 8.04023 7.23012 7.85898 6.79613C7.68203 6.37348 7.50273 6.4309 7.36914 6.42426C7.24219 6.41801 7.0957 6.41645 6.95156 6.41645C6.84137 6.41931 6.73295 6.44487 6.63308 6.49151C6.53321 6.53816 6.44402 6.60489 6.37109 6.68754C6.17148 6.90473 5.60898 7.42973 5.60898 8.49535C5.60898 9.56098 6.39023 10.5922 6.49805 10.7368C6.60586 10.8813 8.0332 13.07 10.2172 14.0086C10.6227 14.1823 11.0371 14.3346 11.4586 14.4649C11.9801 14.6297 12.4547 14.6067 12.8297 14.5508C13.248 14.4887 14.1188 14.0266 14.2996 13.5204C14.4805 13.0141 14.4809 12.5805 14.4266 12.4903C14.3723 12.4 14.227 12.3454 14.009 12.2372Z" fill="#293d51"/>
</svg>
