<svg width="24" height="25" viewBox="0 0 24 25" fill="none" xmlns="http://www.w3.org/2000/svg">
<path d="M14.0497 6.5C15.0264 6.69057 15.924 7.16826 16.6277 7.87194C17.3314 8.57561 17.8091 9.47326 17.9997 10.45M14.0497 2.5C16.0789 2.72544 17.9713 3.63417 19.4159 5.07701C20.8606 6.51984 21.7717 8.41101 21.9997 10.44M10.2266 14.3631C9.02506 13.1615 8.07627 11.8028 7.38028 10.3532C7.32041 10.2285 7.29048 10.1662 7.26748 10.0873C7.18576 9.80695 7.24446 9.46269 7.41447 9.22526C7.46231 9.15845 7.51947 9.10129 7.63378 8.98698C7.98338 8.63737 8.15819 8.46257 8.27247 8.28679C8.70347 7.6239 8.70347 6.76932 8.27247 6.10643C8.15819 5.93065 7.98338 5.75585 7.63378 5.40624L7.43891 5.21137C6.90747 4.67993 6.64174 4.41421 6.35636 4.26987C5.7888 3.9828 5.11854 3.9828 4.55098 4.26987C4.2656 4.41421 3.99987 4.67993 3.46843 5.21137L3.3108 5.36901C2.78117 5.89863 2.51636 6.16344 2.31411 6.52348C2.08969 6.92298 1.92833 7.54347 1.9297 8.0017C1.93092 8.41464 2.01103 8.69687 2.17124 9.26131C3.03221 12.2947 4.65668 15.1571 7.04466 17.545C9.43264 19.933 12.295 21.5575 15.3284 22.4185C15.8928 22.5787 16.1751 22.6588 16.588 22.66C17.0462 22.6614 17.6667 22.5 18.0662 22.2756C18.4263 22.0733 18.6911 21.8085 19.2207 21.2789L19.3783 21.1213C19.9098 20.5898 20.1755 20.3241 20.3198 20.0387C20.6069 19.4712 20.6069 18.8009 20.3198 18.2333C20.1755 17.948 19.9098 17.6822 19.3783 17.1508L19.1835 16.9559C18.8339 16.6063 18.6591 16.4315 18.4833 16.3172C17.8204 15.8862 16.9658 15.8862 16.3029 16.3172C16.1271 16.4315 15.9523 16.6063 15.6027 16.9559C15.4884 17.0702 15.4313 17.1274 15.3644 17.1752C15.127 17.3453 14.7828 17.404 14.5024 17.3222C14.4235 17.2992 14.3612 17.2693 14.2365 17.2094C12.7869 16.5134 11.4282 15.5646 10.2266 14.3631Z" stroke="#293d51" stroke-width="2" stroke-linecap="round" stroke-linejoin="round"/>
</svg>
