<svg width="32" height="32" viewBox="0 0 32 32" fill="none" xmlns="http://www.w3.org/2000/svg">
<path fill-rule="evenodd" clip-rule="evenodd" d="M8.15389 15.9999C8.15445 14.3306 8.68744 12.7049 9.67536 11.3592C10.6633 10.0136 12.0547 9.01809 13.6472 8.5175C15.2397 8.0169 16.9504 8.03728 18.5306 8.57569C20.1107 9.11409 21.478 10.1424 22.4336 11.5113C23.3892 12.8801 23.8833 14.518 23.844 16.1869C23.8048 17.8558 23.2343 19.4687 22.2155 20.7911C21.1967 22.1135 19.7826 23.0765 18.1789 23.5401C16.5752 24.0037 14.8655 23.9437 13.2982 23.3688C13.8307 21.9414 14.3474 20.5081 14.848 19.0692C15.3779 19.4476 16.0619 19.6922 16.9231 19.6922C18.7093 19.6922 20.5924 18.5153 21.0585 16.1808C21.6465 13.2501 19.2991 10.4615 16 10.4615C14.6127 10.4615 13.2484 11.019 12.2274 11.9033C11.2047 12.7904 10.4616 14.0679 10.4616 15.5384C10.4616 16.2538 10.6776 17.0504 11.1917 17.5747C11.366 17.7462 11.6006 17.8424 11.8451 17.8426C12.0896 17.8427 12.3243 17.7469 12.4988 17.5756C12.6685 17.4061 12.7655 17.1771 12.7693 16.9373C12.7731 16.6974 12.6834 16.4655 12.5191 16.2907C11.7936 15.3861 12.7499 13.8944 13.4367 13.299C14.1502 12.6805 15.0927 12.3076 16 12.3076C18.2404 12.3076 19.5853 14.1344 19.2493 15.819C18.9687 17.2165 17.9053 17.8461 16.9231 17.8461C16.168 17.8461 15.7619 17.5276 15.5016 17.115C15.6437 16.6682 15.7647 16.2621 15.8514 15.9316C16.0287 15.2513 16.1357 14.4307 15.5237 13.9202C15.0687 13.5418 14.5314 13.6248 14.2028 13.7901C13.5908 14.0947 13.2308 14.8092 13.2308 15.5384C13.2308 15.9455 13.2945 16.5768 13.5234 17.2295C12.9278 19.006 12.3006 20.7718 11.6422 22.5261C10.5683 21.8096 9.68803 20.839 9.07949 19.7005C8.47094 18.562 8.153 17.2909 8.15389 15.9999ZM16 6.30762C10.6471 6.30762 6.30774 10.647 6.30774 15.9999C6.30774 21.3528 10.6471 25.6922 16 25.6922C21.353 25.6922 25.6924 21.3528 25.6924 15.9999C25.6924 10.647 21.353 6.30762 16 6.30762Z" fill="#293d51"/>
</svg>
