<svg width="22" height="24" viewBox="0 0 22 24" fill="none" xmlns="http://www.w3.org/2000/svg">
<path fill-rule="evenodd" clip-rule="evenodd" d="M2.5896 6.4616C2.5896 5.48233 2.957 4.54318 3.61097 3.85074C4.26494 3.1583 5.15192 2.76929 6.07678 2.76929H16.5383C17.4632 2.76929 18.3502 3.1583 19.0041 3.85074C19.6581 4.54318 20.0255 5.48233 20.0255 6.4616V17.5385C20.0255 18.5178 19.6581 19.4569 19.0041 20.1494C18.3502 20.8418 17.4632 21.2308 16.5383 21.2308H6.07678C5.15192 21.2308 4.26494 20.8418 3.61097 20.1494C2.957 19.4569 2.5896 18.5178 2.5896 17.5385V6.4616ZM6.07678 4.61544C5.61435 4.61544 5.17086 4.80995 4.84387 5.15617C4.51689 5.50239 4.33319 5.97196 4.33319 6.4616V17.5385C4.33319 18.0281 4.51689 18.4977 4.84387 18.8439C5.17086 19.1902 5.61435 19.3847 6.07678 19.3847H16.5383C17.0007 19.3847 17.4442 19.1902 17.7712 18.8439C18.0982 18.4977 18.2819 18.0281 18.2819 17.5385V6.4616C18.2819 5.97196 18.0982 5.50239 17.7712 5.15617C17.4442 4.80995 17.0007 4.61544 16.5383 4.61544H6.07678ZM11.3075 9.23083C10.6139 9.23083 9.94867 9.52258 9.45819 10.0419C8.96771 10.5612 8.69216 11.2656 8.69216 12.0001C8.69216 12.7345 8.96771 13.4389 9.45819 13.9582C9.94867 14.4775 10.6139 14.7693 11.3075 14.7693C12.0012 14.7693 12.6664 14.4775 13.1569 13.9582C13.6474 13.4389 13.9229 12.7345 13.9229 12.0001C13.9229 11.2656 13.6474 10.5612 13.1569 10.0419C12.6664 9.52258 12.0012 9.23083 11.3075 9.23083ZM6.94857 12.0001C6.94857 10.776 7.40782 9.60204 8.22529 8.73649C9.04275 7.87093 10.1515 7.38467 11.3075 7.38467C12.4636 7.38467 13.5723 7.87093 14.3898 8.73649C15.2073 9.60204 15.6665 10.776 15.6665 12.0001C15.6665 13.2241 15.2073 14.3981 14.3898 15.2636C13.5723 16.1292 12.4636 16.6154 11.3075 16.6154C10.1515 16.6154 9.04275 16.1292 8.22529 15.2636C7.40782 14.3981 6.94857 13.2241 6.94857 12.0001ZM16.1024 8.30775C16.4492 8.30775 16.7819 8.16187 17.0271 7.9022C17.2723 7.64254 17.4101 7.29036 17.4101 6.92313C17.4101 6.55591 17.2723 6.20373 17.0271 5.94406C16.7819 5.6844 16.4492 5.53852 16.1024 5.53852C15.7556 5.53852 15.423 5.6844 15.1777 5.94406C14.9325 6.20373 14.7947 6.55591 14.7947 6.92313C14.7947 7.29036 14.9325 7.64254 15.1777 7.9022C15.423 8.16187 15.7556 8.30775 16.1024 8.30775Z" fill="#293d51"/>
</svg>
