<svg width="24" height="24" viewBox="0 0 24 24" fill="none" xmlns="http://www.w3.org/2000/svg">
<path fill-rule="evenodd" clip-rule="evenodd" d="M4.15389 11.9999C4.15445 10.3306 4.68744 8.70488 5.67536 7.35923C6.66329 6.01358 8.05466 5.01809 9.6472 4.5175C11.2397 4.0169 12.9504 4.03728 14.5306 4.57569C16.1107 5.11409 17.478 6.14245 18.4336 7.51126C19.3892 8.88007 19.8833 10.518 19.844 12.1869C19.8048 13.8558 19.2343 15.4687 18.2155 16.7911C17.1967 18.1135 15.7826 19.0765 14.1789 19.5401C12.5752 20.0037 10.8655 19.9437 9.2982 19.3688C9.83074 17.9414 10.3474 16.5081 10.848 15.0692C11.3779 15.4476 12.0619 15.6922 12.9231 15.6922C14.7093 15.6922 16.5924 14.5153 17.0585 12.1808C17.6465 9.25008 15.2991 6.46146 12 6.46146C10.6127 6.46146 9.24836 7.019 8.22743 7.90331C7.20466 8.79039 6.46159 10.0679 6.46159 11.5384C6.46159 12.2538 6.67759 13.0504 7.19174 13.5747C7.36598 13.7462 7.60061 13.8424 7.84509 13.8426C8.08957 13.8427 8.32434 13.7469 8.49882 13.5756C8.66849 13.4061 8.76549 13.1771 8.76929 12.9373C8.77308 12.6974 8.68335 12.4655 8.51912 12.2907C7.79359 11.3861 8.74989 9.89439 9.43666 9.299C10.1502 8.68054 11.0927 8.30762 12 8.30762C14.2404 8.30762 15.5853 10.1344 15.2493 11.819C14.9687 13.2165 13.9053 13.8461 12.9231 13.8461C12.168 13.8461 11.7619 13.5276 11.5016 13.115C11.6437 12.6682 11.7647 12.2621 11.8514 11.9316C12.0287 11.2513 12.1357 10.4307 11.5237 9.92023C11.0687 9.54177 10.5314 9.62485 10.2028 9.79008C9.59082 10.0947 9.23082 10.8092 9.23082 11.5384C9.23082 11.9455 9.29451 12.5768 9.52343 13.2295C8.92777 15.006 8.30059 16.7718 7.6422 18.5261C6.56833 17.8096 5.68803 16.839 5.07949 15.7005C4.47094 14.562 4.153 13.2909 4.15389 11.9999V11.9999ZM12 2.30762C6.64712 2.30762 2.30774 6.647 2.30774 11.9999C2.30774 17.3528 6.64712 21.6922 12 21.6922C17.353 21.6922 21.6924 17.3528 21.6924 11.9999C21.6924 6.647 17.353 2.30762 12 2.30762Z" fill="#293d51"/>
</svg>
