<svg width="24" height="24" viewBox="0 0 24 24" fill="none" xmlns="http://www.w3.org/2000/svg">
<path d="M3 8.00012L15 8.00012M15 8.00012C15 9.65698 16.3431 11.0001 18 11.0001C19.6569 11.0001 21 9.65698 21 8.00012C21 6.34327 19.6569 5.00012 18 5.00012C16.3431 5.00012 15 6.34327 15 8.00012ZM9 16.0001L21 16.0001M9 16.0001C9 17.657 7.65685 19.0001 6 19.0001C4.34315 19.0001 3 17.657 3 16.0001C3 14.3433 4.34315 13.0001 6 13.0001C7.65685 13.0001 9 14.3433 9 16.0001Z" stroke="black" stroke-width="2" stroke-linecap="round" stroke-linejoin="round"/>
</svg>
