<svg width="18" height="19" viewBox="0 0 18 19" fill="none" xmlns="http://www.w3.org/2000/svg">
<path d="M1.5 2H2.47962C2.66414 2 2.75639 2 2.83064 2.03393C2.89606 2.06383 2.95151 2.11192 2.99036 2.17246C3.03445 2.24116 3.0475 2.33249 3.07359 2.51515L3.42857 5M3.42857 5L4.21749 10.7986C4.3176 11.5344 4.36766 11.9023 4.54357 12.1793C4.69858 12.4233 4.92081 12.6173 5.18352 12.738C5.48165 12.875 5.85296 12.875 6.59558 12.875H13.014C13.7209 12.875 14.0744 12.875 14.3632 12.7478C14.6179 12.6357 14.8364 12.4549 14.9942 12.2257C15.1732 11.9657 15.2393 11.6185 15.3716 10.9241L16.3643 5.71227C16.4109 5.46786 16.4342 5.34565 16.4004 5.25012C16.3708 5.16633 16.3124 5.09576 16.2357 5.05101C16.1481 5 16.0237 5 15.7749 5H3.42857ZM7.5 16.25C7.5 16.6642 7.16421 17 6.75 17C6.33579 17 6 16.6642 6 16.25C6 15.8358 6.33579 15.5 6.75 15.5C7.16421 15.5 7.5 15.8358 7.5 16.25ZM13.5 16.25C13.5 16.6642 13.1642 17 12.75 17C12.3358 17 12 16.6642 12 16.25C12 15.8358 12.3358 15.5 12.75 15.5C13.1642 15.5 13.5 15.8358 13.5 16.25Z" stroke="white" stroke-width="1.5" stroke-linecap="round" stroke-linejoin="round"/>
</svg>
