<svg width="22" height="24" viewBox="0 0 22 24" fill="none" xmlns="http://www.w3.org/2000/svg">
<path fill-rule="evenodd" clip-rule="evenodd" d="M13.1761 6.14586C12.7778 6.14568 12.3845 6.23914 12.0245 6.41947C11.6644 6.59981 11.3467 6.86253 11.0942 7.18867C10.8418 7.51481 10.6608 7.89624 10.5645 8.30542C10.4682 8.7146 10.4588 9.14132 10.5372 9.55478C10.5641 9.69804 10.5586 9.84603 10.521 9.98659C10.4835 10.1271 10.4149 10.2563 10.3211 10.3633C10.2272 10.4704 10.1107 10.5523 9.98108 10.6024C9.85148 10.6525 9.7125 10.6693 9.57557 10.6514C7.70098 10.4076 5.93385 9.59166 4.48952 8.30309C4.51655 8.85878 4.69875 9.44955 5.09367 10.068L5.68562 10.9948L4.71357 11.4332L4.52614 11.5182C4.66562 11.6871 4.83301 11.8597 5.02044 12.0305C5.27101 12.2576 5.53609 12.4661 5.81378 12.6545L5.82337 12.6609H5.82424L7.17378 13.5277L5.76147 14.2754C5.69173 14.3123 5.62198 14.3455 5.55224 14.3751C5.85592 14.6423 6.19047 14.8675 6.54783 15.0452L7.75962 15.6517L6.74485 16.5785C6.19126 17.0843 5.63419 17.4619 4.91147 17.6612C6.0199 18.2864 7.25698 18.612 8.51285 18.6092C12.7027 18.6092 16.0765 15.0692 16.0765 10.7317V10.2517L16.4471 9.9757C17.0259 9.54555 17.4348 8.96401 17.7277 8.29847H15.8446L15.6075 7.77232C15.3892 7.28555 15.0449 6.87435 14.6147 6.58645C14.1844 6.29856 13.6859 6.14578 13.177 6.14586H13.1761ZM3.34224 12.8843C3.25997 12.9841 3.19894 13.1014 3.16329 13.2283C3.12764 13.3553 3.1182 13.4889 3.13562 13.62C3.23414 14.3594 3.65173 14.9963 4.11378 15.4828C4.23932 15.6148 4.37357 15.7412 4.5148 15.8622L4.44942 15.8806C4.03009 15.9914 3.46429 16.0145 2.52188 15.9175C2.34391 15.8991 2.16488 15.939 2.00905 16.0318C1.85322 16.1247 1.72815 16.2661 1.65077 16.4368C1.5734 16.6075 1.54747 16.7993 1.57651 16.9861C1.60555 17.1729 1.68815 17.3458 1.81311 17.4812C2.68558 18.4255 3.72783 19.1751 4.87836 19.6859C6.02889 20.1967 7.2644 20.4584 8.51198 20.4554C13.4925 20.4554 17.5778 16.3606 17.8088 11.1932C18.9334 10.1935 19.4957 8.8394 19.7991 7.60893C19.8328 7.47237 19.8365 7.32943 19.8099 7.19111C19.7833 7.05279 19.7271 6.92277 19.6456 6.81107C19.5641 6.69936 19.4595 6.60893 19.3398 6.54674C19.2201 6.48454 19.0885 6.45224 18.9552 6.45232H16.9039C16.4021 5.62739 15.6688 4.98965 14.8071 4.62872C13.9454 4.26779 12.9985 4.20181 12.0995 4.44005C11.2006 4.67829 10.3947 5.20878 9.79516 5.95697C9.19562 6.70517 8.83254 7.63345 8.75696 8.6114C7.14994 8.16846 5.71207 7.20906 4.64121 5.86524C4.54638 5.74652 4.42475 5.65508 4.28763 5.59942C4.1505 5.54376 4.00232 5.52568 3.85684 5.54686C3.71135 5.56804 3.57327 5.62779 3.45542 5.72056C3.33757 5.81334 3.24376 5.93613 3.1827 6.07755C2.65439 7.29786 2.55326 8.70463 3.1426 10.1354L2.9386 10.2277C2.74338 10.3158 2.58521 10.4762 2.49372 10.679C2.40224 10.8817 2.38374 11.1128 2.44167 11.3289C2.60383 11.9308 2.96824 12.4625 3.34137 12.8843H3.34224Z" fill="#293d51"/>
</svg>
