<svg width="22" height="24" viewBox="0 0 22 24" fill="none" xmlns="http://www.w3.org/2000/svg">
<path fill-rule="evenodd" clip-rule="evenodd" d="M7.37774 5.33073C9.63743 4.99196 12.3627 4.99196 14.6224 5.33073C16.6754 5.63903 18.2665 7.16396 18.5698 8.80703C18.9386 10.7963 18.9386 13.2036 18.5698 15.1929C18.2656 16.836 16.6754 18.3609 14.6224 18.6692C12.3627 19.008 9.63656 19.008 7.37774 18.6692C5.32466 18.3609 3.73451 16.836 3.43025 15.1929C3.06148 13.2036 3.06148 10.7963 3.43025 8.80703C3.73451 7.16396 5.32466 5.63903 7.37774 5.33073ZM14.8665 3.50303C12.4455 3.14026 9.55461 3.14026 7.13364 3.50303C4.50518 3.89719 2.19492 5.88273 1.71979 8.45257C1.30743 10.6763 1.30743 13.3237 1.71979 15.5473C2.19492 18.1172 4.50518 20.1027 7.13364 20.4969C9.55461 20.8597 12.4455 20.8597 14.8665 20.4969C17.4949 20.1027 19.8052 18.1172 20.2803 15.5473C20.6927 13.3237 20.6927 10.6763 20.2803 8.45257C19.8052 5.88273 17.4949 3.89719 14.8665 3.50303ZM9.7403 7.53965C9.60901 7.4469 9.4564 7.39363 9.29875 7.38552C9.14111 7.37741 8.98434 7.41477 8.84518 7.49361C8.70601 7.57245 8.58967 7.68982 8.50857 7.83318C8.42746 7.97654 8.38464 8.14053 8.38466 8.30765V15.6923C8.38464 15.8594 8.42746 16.0234 8.50857 16.1667C8.58967 16.3101 8.70601 16.4275 8.84518 16.5063C8.98434 16.5851 9.14111 16.6225 9.29875 16.6144C9.4564 16.6063 9.60901 16.553 9.7403 16.4603L14.9711 12.768C15.0905 12.6837 15.1884 12.5695 15.2561 12.4355C15.3238 12.3015 15.3592 12.1519 15.3592 12C15.3592 11.848 15.3238 11.6984 15.2561 11.5644C15.1884 11.4305 15.0905 11.3163 14.9711 11.232L9.7403 7.53965ZM12.9154 12L10.1283 13.968V10.0329L12.9154 12Z" fill="#293d51"/>
</svg>
